<svg xmlns="http://www.w3.org/2000/svg" width="100" height="100"  viewBox="0 0 100 100">
    <g fill="none" fill-rule="evenodd">
        <path fill="#ffffff" d="M87.89 19.143a16 16 0 0 1 8 13.856V67a15.998 15.998 0 0 1-8 13.856l-29.446 17a15.996 15.996 0 0 1-16 0L13 80.856A15.998 15.998 0 0 1 5 67V33a16 16 0 0 1 8-13.857l29.444-17a16 16 0 0 1 16 0l29.447 17zM40 30h-5c-2.75 0-5 2.25-5 5v35a5 5 0 0 0 5 5h30a5 5 0 0 0 5-5V35a5 5 0 0 0-5-5h-5a5 5 0 0 0-5-5H45c-2.75 0-5 2.25-5 5zm0 5a5 5 0 0 0 5 5h10a5 5 0 0 0 5-5h5v35H35V35h5zm5-5h10v5H45v-5z"/>
    </g>
</svg>
